<svg height="512pt" viewBox="-20 0 512 512.00102" width="512pt" xmlns="http://www.w3.org/2000/svg"><path d="m426.492188 356.484375h-381.910157c17.5 0 27.394531-9.15625 33.011719-24.332031 27.167969-73.285156-45.199219-286.851563 157.949219-286.851563 203.144531 0 130.765625 213.566407 157.9375 286.851563 5.625 15.175781 15.523437 24.332031 33.011719 24.332031zm0 0" fill="#f7d360"/><path d="m463.46875 393.457031c0 20.421875-16.558594 36.976563-36.976562 36.976563h-381.910157c-10.210937 0-19.457031-4.136719-26.148437-10.828125-6.691406-6.691407-10.828125-15.9375-10.828125-26.148438 0-20.417969 16.554687-36.972656 36.976562-36.972656h381.910157c10.210937 0 19.457031 4.136719 26.148437 10.828125s10.828125 15.9375 10.828125 26.144531zm0 0" fill="#e58e13"/><path d="m393.480469 332.152344h-198.5c-21.398438 0-38.511719-17.714844-37.847657-39.105469 2.796876-90.5-11.636718-246.027344 76.921876-247.738281-243.09375 1.257812-87.699219 311.175781-189.46875 311.175781h381.90625c-17.488282 0-27.386719-9.15625-33.011719-24.332031zm0 0" fill="#e58e13"/><path d="m463.46875 393.457031c0 20.421875-16.558594 36.976563-36.976562 36.976563h-275.0625c-10.207032 0-19.453126-4.136719-26.144532-10.828125-6.691406-6.691407-10.828125-15.9375-10.828125-26.148438 0-20.417969 16.554688-36.972656 36.972657-36.972656h275.0625c10.210937 0 19.457031 4.136719 26.148437 10.828125s10.828125 15.9375 10.828125 26.144531zm0 0" fill="#f7d360"/><path d="m309.492188 430.433594c0 34.003906-22.945313 62.636718-54.179688 71.285156-6.296875 1.742188-12.925781 2.675781-19.769531 2.675781-40.851563 0-73.960938-33.113281-73.960938-73.960937zm0 0" fill="#e58e13"/><path d="m305.914062 453.246094c-7.613281 23.5-26.675781 41.851562-50.601562 48.472656-15.042969-4.160156-28.160156-12.953125-37.722656-24.746094-7.707032-9.507812-.753906-23.726562 11.484375-23.726562zm0 0" fill="#f7d360"/><path d="m273.125 48.128906c.082031-.933594.113281-1.875.113281-2.828125 0-20.816406-16.882812-37.695312-37.695312-37.695312-20.828125 0-37.695313 16.878906-37.695313 37.695312 0 .953125.027344 1.894531.109375 2.828125" fill="#e58e13"/><path d="m426.492188 348.875h-.03125c-14.722657-.007812-23.035157-7.648438-27.792969-25.53125-4.863281-18.289062-5.027344-44.8125-5.199219-72.894531-.207031-34.023438-.441406-72.585938-8.898438-107.074219-1-4.078125-5.121093-6.574219-9.199218-5.574219-4.074219 1-6.570313 5.117188-5.574219 9.195313 8.035156 32.75 8.261719 70.363281 8.464844 103.546875.179687 29.078125.34375 56.542969 5.707031 76.707031 2.332031 8.769531 5.675781 15.976562 9.996094 21.625h-316.855469c4.320313-5.648438 7.664063-12.855469 9.996094-21.625 5.363281-20.164062 5.53125-47.628906 5.707031-76.707031.269531-44.394531.578125-94.710938 18.742188-133.21875 20.445312-43.347657 61-64.421875 123.984374-64.421875 34.589844 0 62.894532 6.5 84.125 19.324218 18.410157 11.117188 31.925782 26.917969 41.320313 48.304688 1.6875 3.84375 6.175781 5.59375 10.019531 3.902344 3.84375-1.6875 5.59375-6.171875 3.90625-10.019532-10.550781-24.015624-26.492187-42.589843-47.382812-55.207031-13.335938-8.054687-28.996094-13.863281-46.832032-17.402343-1.796874-23.347657-21.355468-41.804688-45.15625-41.804688-23.800781 0-43.363281 18.460938-45.148437 41.8125-17.015625 3.371094-32.058594 8.804688-44.96875 16.285156-20.773437 12.039063-36.796875 29.785156-47.625 52.738282-19.59375 41.542968-19.914063 93.644531-20.191406 139.613281-.171875 28.082031-.332031 54.605469-5.199219 72.894531-4.757812 17.882812-13.070312 25.523438-27.792969 25.53125h-.03125c-24.582031 0-44.582031 20-44.582031 44.585938 0 24.582031 20 44.582031 44.582031 44.582031h48.128907c4.199218 0 7.605468-3.40625 7.605468-7.605469s-3.40625-7.601562-7.605468-7.601562h-48.128907c-16.195312 0-29.375-13.179688-29.375-29.375 0-16.195313 13.175781-29.371094 29.371094-29.375h.003906.027344 381.851563.027343.007813c16.191406.003906 29.367187 13.179687 29.367187 29.375 0 16.195312-13.179687 29.375-29.375 29.375h-303.359375c-4.199218 0-7.601562 3.402343-7.601562 7.601562s3.402344 7.605469 7.601562 7.605469h31.214844c3.847656 41.421875 38.785156 73.957031 81.195312 73.957031 42.40625 0 77.34375-32.535156 81.191407-73.957031h109.761719c24.582031 0 44.582031-20 44.582031-44.582031 0-24.585938-20-44.585938-44.582031-44.585938zm-190.953126-333.667969c14.5625 0 26.742188 10.402344 29.503907 24.164063-9.335938-1.101563-19.164063-1.675782-29.503907-1.675782-10.339843 0-20.167968.570313-29.5 1.671876 2.761719-13.761719 14.9375-24.160157 29.5-24.160157zm0 481.585938c-34.015624 0-62.121093-25.734375-65.90625-58.75h131.808594c-3.785156 33.015625-31.890625 58.75-65.902344 58.75zm0 0"/><path d="m357.632812 47.722656c.136719.074219 13.675782 7.800782 26.996094 25.75 17.84375 24.039063 26.886719 54.070313 26.886719 89.261719 0 4.199219 3.40625 7.605469 7.605469 7.605469 4.199218 0 7.605468-3.40625 7.605468-7.605469 0-48.445313-16.542968-80.601563-30.421874-99.042969-15.25-20.265625-30.644532-28.910156-31.292969-29.269531-3.667969-2.023437-8.269531-.695313-10.308594 2.960937-2.039063 3.660157-.722656 8.285157 2.929687 10.339844zm0 0"/><path d="m415.003906 50.511719c1.222656.800781 29.96875 20.09375 29.96875 68.632812 0 4.199219 3.40625 7.601563 7.605469 7.601563s7.601563-3.402344 7.601563-7.601563c0-57.25-35.464844-80.480469-36.976563-81.441406-3.527344-2.246094-8.191406-1.207031-10.457031 2.3125-2.265625 3.515625-1.246094 8.210937 2.257812 10.496094zm0 0"/><path d="m51.949219 170.339844c4.199219 0 7.605469-3.40625 7.605469-7.605469 0-35.191406 9.046874-65.222656 26.886718-89.261719 13.238282-17.835937 26.695313-25.578125 26.992188-25.75 3.660156-2.035156 4.988281-6.652344 2.960937-10.320312-2.035156-3.675782-6.660156-5.007813-10.335937-2.980469-.648438.359375-16.042969 9.003906-31.292969 29.269531-13.875 18.441406-30.417969 50.597656-30.417969 99.042969 0 4.199219 3.402344 7.605469 7.601563 7.605469zm0 0"/><path d="m18.496094 126.746094c4.199218 0 7.601562-3.402344 7.601562-7.601563 0-48.5 28.703125-67.804687 29.96875-68.628906 3.515625-2.261719 4.546875-6.945313 2.300782-10.476563-2.253907-3.542968-6.953126-4.585937-10.5-2.332031-1.507813.960938-36.976563 24.1875-36.976563 81.4375 0 4.199219 3.40625 7.601563 7.605469 7.601563zm0 0"/></svg>